<svg width="24" height="24" viewBox="0 0 24 24" fill="none" xmlns="http://www.w3.org/2000/svg">
<path d="M9.375 3.00189C8.87772 3.00189 8.40081 3.19943 8.04917 3.55106C7.69754 3.90269 7.5 4.37961 7.5 4.87689C7.5 5.37417 7.69754 5.85108 8.04917 6.20271C8.40081 6.55434 8.87772 6.75189 9.375 6.75189H11.25V11.2519H3.375C2.87772 11.2519 2.40081 11.0543 2.04917 10.7027C1.69754 10.3511 1.5 9.87417 1.5 9.37689V8.62689C1.5 7.59089 2.34 6.75189 3.375 6.75189H6.568C6.08181 6.02964 5.89354 5.14745 6.04253 4.28965C6.19152 3.43185 6.66624 2.66482 7.36749 2.14882C8.06875 1.63281 8.94228 1.40777 9.80557 1.52072C10.6689 1.63366 11.4551 2.07585 12 2.75489C12.5449 2.07585 13.3311 1.63366 14.1944 1.52072C15.0577 1.40777 15.9313 1.63281 16.6325 2.14882C17.3338 2.66482 17.8085 3.43185 17.9575 4.28965C18.1065 5.14745 17.9182 6.02964 17.432 6.75189H21.375C22.41 6.75189 23.25 7.59189 23.25 8.62689V9.37689C23.25 10.4129 22.41 11.2519 21.375 11.2519H12.75V6.75189H14.625C14.9958 6.75189 15.3584 6.64192 15.6667 6.43589C15.975 6.22986 16.2154 5.93703 16.3573 5.59442C16.4992 5.25181 16.5363 4.87481 16.464 4.51109C16.3916 4.14738 16.213 3.81328 15.9508 3.55106C15.6886 3.28884 15.3545 3.11026 14.9908 3.03791C14.6271 2.96557 14.2501 3.0027 13.9075 3.14461C13.5649 3.28653 13.272 3.52685 13.066 3.83519C12.86 4.14353 12.75 4.50605 12.75 4.87689V6.75189H11.25V4.87689C11.25 3.84089 10.41 3.00189 9.375 3.00189ZM11.25 12.7519H3V19.5019C3 20.0986 3.23705 20.6709 3.65901 21.0929C4.08097 21.5148 4.65326 21.7519 5.25 21.7519H11.25V12.7519ZM12.75 12.7519V21.7519H19.5C20.0967 21.7519 20.669 21.5148 21.091 21.0929C21.5129 20.6709 21.75 20.0986 21.75 19.5019V12.7519H12.75Z" fill="black"/>
</svg>
