<svg width="75" height="71" viewBox="0 0 75 71" fill="none" xmlns="http://www.w3.org/2000/svg">
<g clip-path="url(#clip0_740_7967)">
<g opacity="0.5">
<path d="M46.5392 20.0738C46.9265 20.3922 47.247 20.7681 47.4946 21.1837L48.7454 20.9977L48.9828 21.7847L49.2202 22.5717L48.0953 23.1747C48.1207 23.6641 48.0646 24.1651 47.9225 24.6593L48.8938 25.3797L48.4777 26.1301L48.0616 26.8806L46.8698 26.5579C46.5195 26.9517 46.1135 27.284 45.6706 27.5475L45.7933 28.7521L44.9674 29.0264L44.1415 29.3007L43.5813 28.2414C43.0745 28.2933 42.5603 28.2666 42.0578 28.156L41.26 29.1395L40.5082 28.7769L39.7563 28.4144L40.1557 27.2388C39.7684 26.9203 39.4479 26.5444 39.2003 26.1288L37.9496 26.3148L37.7122 25.5278L37.4748 24.7408L38.5997 24.1378C38.5743 23.6485 38.6303 23.1475 38.7724 22.6533L37.8012 21.9329L38.2173 21.1824L38.6334 20.432L39.8251 20.7547C40.1755 20.3609 40.5814 20.0287 41.0243 19.7651L40.9017 18.5605L41.7276 18.2862L42.5535 18.0119L43.1137 19.0712C43.6205 19.0193 44.1347 19.046 44.6372 19.1565L45.435 18.1731L46.1868 18.5357L46.9387 18.8982L46.5392 20.0738ZM40.5268 22.2961C39.6646 23.8509 40.2285 25.7204 41.7863 26.4716C43.3441 27.2228 45.3059 26.5713 46.1681 25.0164C47.0303 23.4616 46.4663 21.5921 44.9085 20.8409C43.3507 20.0897 41.3889 20.7412 40.5268 22.2961Z" fill="#FDEACF"/>
</g>
<path d="M35.0856 67.8152C34.5694 68.1677 18.5116 83.362 18.5116 83.362L10.1576 69.2059C10.1576 69.2059 20.4841 61.9893 23.1907 57.165C25.8972 52.3406 35.0856 67.8152 35.0856 67.8152Z" fill="#F49C7A"/>
<path d="M37.2346 49.0478C38.2344 49.9611 47.0517 52.2484 47.1129 53.6012C47.1518 54.4616 38.3175 60.9278 38.4642 63.1752L38.6772 63.2362L38.5873 65.0498C38.603 65.2859 38.6119 65.4209 38.6119 65.4209L38.5699 65.4019L38.5681 65.4376L31.6264 70.1779C30.0534 71.252 27.9832 71.1653 26.639 69.9706C25.5097 68.9668 22.7494 65.6605 21.6489 64.2696C20.52 62.8426 20.6453 60.8006 21.8775 59.3848C21.8776 59.3847 26.799 50.8227 27.043 50.0479C27.4776 48.6678 30.8252 45.4879 30.8252 45.4879C30.8252 45.4879 36.2347 48.1345 37.2346 49.0478Z" fill="#F49C7A"/>
<path d="M22.079 58.7764C22.0857 58.7949 22.0993 58.8109 22.1187 58.8204C22.1604 58.8408 22.2131 58.8236 22.2365 58.7819L27.0093 50.3557C27.0327 50.3141 27.0178 50.2638 26.9761 50.2434C26.9344 50.223 26.8816 50.2402 26.8583 50.2819L22.0855 58.7081C22.073 58.7303 22.0715 58.7551 22.079 58.7764Z" fill="#010103"/>
<path d="M49.9273 34.2736C49.9273 34.2736 49.8021 31.8569 47.8472 31.9386C45.8923 32.0203 45.3515 34.4676 45.3972 35.1435C45.4429 35.8193 49.9273 34.2736 49.9273 34.2736Z" fill="#F49C7A"/>
<path d="M46.0308 35.7619C46.0308 35.7619 45.9056 33.3452 43.9507 33.4269C41.9958 33.5086 41.455 35.9559 41.5007 36.6317C41.5464 37.3076 46.0308 35.7619 46.0308 35.7619Z" fill="#F49C7A"/>
<path d="M42.8111 37.7209C42.8111 37.7209 42.6859 35.3042 40.731 35.3859C38.776 35.4676 38.2353 37.9149 38.281 38.5907C38.3266 39.2666 42.8111 37.7209 42.8111 37.7209Z" fill="#F49C7A"/>
<path d="M42.8693 15.7957L23.8909 29.921L61.2373 28.8571L42.8693 15.7957Z" fill="black" stroke="#313131"/>
<path d="M61.8303 44.6282L62.2321 29.7063L22.8106 30.8277L22.4088 45.7496L61.8303 44.6282Z" fill="black" stroke="black"/>
<path d="M49.4467 47.3405L37.1494 45.0645L43.5481 19.595L55.8454 21.871L49.4467 47.3405Z" fill="#53A07C"/>
<path d="M51.1903 33.5161C50.6918 36.2167 47.8978 38.002 45.2215 37.3303C43.0145 36.7763 41.6439 34.6538 42.0551 32.4269C42.5537 29.7264 45.3476 27.9411 48.0238 28.6128C50.2309 29.1667 51.6014 31.2892 51.1903 33.5161Z" fill="#B9EDD6"/>
<path d="M50.9535 46.4752L38.6562 44.1992L45.0549 18.7297L57.3522 21.0057L50.9535 46.4752Z" fill="#7FC6A6"/>
<path d="M52.4207 33.7429C51.9221 36.4434 49.1281 38.2287 46.4518 37.5568C44.2448 37.0027 42.8743 34.8802 43.2855 32.6533C43.7843 29.9529 46.5782 28.1676 49.2544 28.8394C51.4614 29.3934 52.832 31.5159 52.4207 33.7429Z" fill="#B9EDD6"/>
<path d="M49.2512 27.6304C51.3966 28.0274 52.9697 29.5422 53.5006 31.4452L55.7936 22.3179L45.8408 20.4759L43.5479 29.6032C44.9452 28.0571 47.1058 27.2333 49.2512 27.6304Z" fill="#B9EDD6"/>
<path d="M46.4539 38.7717C44.3085 38.3746 42.7354 36.8598 42.2046 34.9568L40.21 42.8963L50.1628 44.7382L52.1573 36.7988C50.76 38.3449 48.5994 39.1687 46.4539 38.7717Z" fill="#B9EDD6"/>
<path d="M43.5482 19.5915L45.0525 18.7309L44.46 21.0891L43.5482 19.5915Z" fill="#53A07C"/>
<path d="M50.9531 46.4766L49.4489 47.3372L48.4392 46.0113L50.9531 46.4766Z" fill="#53A07C"/>
<path d="M37.1516 45.0613L38.6558 44.2006L50.9531 46.4766L49.4489 47.3372L37.1516 45.0613Z" fill="#4B8C6B"/>
<path d="M53.8744 34.8287L41.5771 32.5527L41.9752 30.9685L54.2724 33.2445L53.8744 34.8287Z" fill="#217F7A"/>
<path d="M41.9787 30.9718L40.6233 31.2399L40.2466 32.7395L41.5807 32.5561L41.9787 30.9718Z" fill="#E23E3D"/>
<path d="M46.7843 45.9663L34.1182 49.459L27.9913 23.909L40.6574 20.4163L46.7843 45.9663Z" fill="#53A07C"/>
<path d="M41.8348 32.8777C42.6536 35.5061 40.8743 38.3497 38.0335 38.9526C35.6908 39.4499 33.3876 38.1751 32.7122 36.0075C31.8933 33.3791 33.6725 30.5354 36.5134 29.9325C38.8561 29.4353 41.1594 30.7101 41.8348 32.8777Z" fill="#B9EDD6"/>
<path d="M47.7921 44.5308L35.126 48.0234L28.9991 22.4734L41.6652 18.9807L47.7921 44.5308Z" fill="#7FC6A6"/>
<path d="M34.515 31.8578C35.9146 29.6249 38.8521 28.8145 41.076 30.0478C43.3 31.2811 43.9682 34.0911 42.5685 36.3241C41.1688 38.557 38.2313 39.3674 36.0074 38.1341C33.7835 36.9008 33.1153 34.0908 34.515 31.8578Z" fill="#B9EDD6"/>
<path d="M37.2011 28.5003C39.4109 27.891 41.6151 28.5339 43.023 29.9901L40.8275 20.8337L30.576 23.6603L32.7714 32.8167C33.3497 30.8128 34.9913 29.1096 37.2011 28.5003Z" fill="#B9EDD6"/>
<path d="M39.8799 39.6726C37.67 40.2819 35.4659 39.6391 34.058 38.1828L35.9678 46.1476L46.2193 43.321L44.3096 35.3562C43.7313 37.3601 42.0897 39.0633 39.8799 39.6726Z" fill="#B9EDD6"/>
<path d="M27.9966 23.9091L29.0025 22.4677L29.5698 24.8335L27.9966 23.9091Z" fill="#53A07C"/>
<path d="M47.7949 44.5274L46.789 45.9689L45.2055 45.2414L47.7949 44.5274Z" fill="#53A07C"/>
<path d="M34.1225 49.4613L35.1284 48.0199L47.7949 44.5274L46.789 45.9689L34.1225 49.4613Z" fill="#4B8C6B"/>
<path d="M44.9903 32.8433L32.3242 36.3359L31.9431 34.7466L44.6092 31.2539L44.9903 32.8433Z" fill="#3F9896"/>
<path d="M31.9458 34.7473L30.7973 35.5942L31.158 37.0986L32.3268 36.3366L31.9458 34.7473Z" fill="#3F9896"/>
<g opacity="0.3">
<path d="M42.6618 23.122L47.7945 44.5289L46.7886 45.9704L44.8831 46.4958L49.4468 47.3404L43.6789 19.4018L42.6618 23.122Z" fill="#4B8C6B"/>
</g>
<path d="M37.7967 48.4906C37.7884 48.4804 37.7822 48.4683 37.7789 48.4545C37.7664 48.4024 37.8005 48.3478 37.8551 48.3328L46.7273 45.8865L47.6849 44.5142L41.5912 19.0999L29.0235 22.5651C28.9691 22.5799 28.9147 22.5501 28.9021 22.4978C28.8896 22.4457 28.9237 22.3911 28.9782 22.3761L41.7436 18.8564L47.9027 44.5438L46.8485 46.0545L37.9003 48.5218C37.8601 48.5328 37.82 48.5193 37.7967 48.4906Z" fill="black"/>
<path d="M41.7771 46.228C41.7688 46.2177 41.7626 46.2056 41.7593 46.1918C41.7468 46.1397 41.7809 46.0851 41.8355 46.0701L47.7722 44.4332C47.8267 44.4182 47.8811 44.4483 47.8936 44.5004C47.9061 44.5526 47.872 44.6071 47.8175 44.6221L41.8808 46.259C41.8406 46.2701 41.8005 46.2567 41.7771 46.228Z" fill="black"/>
<path d="M39.1279 21.4926C39.0958 21.4531 39.1022 21.3939 39.1434 21.3578C39.1861 21.3206 39.2501 21.3222 39.2863 21.3617L40.4782 22.661C40.5123 22.7014 40.509 22.7627 40.4663 22.7999C40.4236 22.8372 40.3596 22.8355 40.3235 22.7961L39.1316 21.4968C39.1304 21.4955 39.1291 21.4941 39.1279 21.4926Z" fill="black"/>
<path d="M38.8751 22.0355C38.843 21.996 38.8494 21.9368 38.8907 21.9007C38.9334 21.8634 38.9973 21.8652 39.0335 21.9046L40.2253 23.2039C40.259 23.244 40.2562 23.3055 40.2134 23.3429C40.1706 23.3802 40.1067 23.3785 40.0706 23.339L38.8788 22.0397C38.8775 22.0384 38.8763 22.037 38.8751 22.0355Z" fill="black"/>
<path d="M52.5944 25.985C52.5623 25.9454 52.5687 25.8862 52.61 25.8502C52.6527 25.8129 52.7166 25.8146 52.7528 25.8541L53.9446 27.1534C53.9798 27.1925 53.9755 27.255 53.9327 27.2923C53.89 27.3297 53.8261 27.3279 53.7899 27.2885L52.5981 25.9891C52.5969 25.9878 52.5956 25.9864 52.5944 25.985Z" fill="black"/>
<path d="M52.3425 26.528C52.3104 26.4884 52.3168 26.4293 52.358 26.3932C52.4007 26.3559 52.4647 26.3576 52.5008 26.3971L53.6927 27.6963C53.7282 27.7363 53.7235 27.798 53.6808 27.8353C53.6382 27.8726 53.5742 27.8709 53.538 27.8314L52.3461 26.5321C52.345 26.5308 52.3437 26.5294 52.3425 26.528Z" fill="black"/>
<path d="M50.8694 46.541C50.8517 46.5192 50.8443 46.4896 50.8519 46.4594L57.226 21.0864L45.065 18.8356L43.6348 19.6539L42.7596 23.138C42.7462 23.1914 42.6912 23.2266 42.6369 23.2165C42.5826 23.2064 42.5493 23.155 42.5627 23.1017L43.4596 19.5315L45.038 18.6284L45.0757 18.6354L57.4715 20.9296L51.0487 46.4958C51.0353 46.5491 50.9804 46.5842 50.9261 46.5742C50.9025 46.5698 50.8829 46.5577 50.8694 46.541Z" fill="black"/>
<path d="M42.1972 42.3405L21.6479 55.496L22.3248 30.3352L42.1972 42.3405Z" fill="#111111"/>
<path d="M62.7469 29.1853L62.07 54.3461L42.1976 42.3414L62.7469 29.1853Z" fill="#111111"/>
<path d="M62.0703 54.3477L21.6486 55.4984L42.1887 40.2104L62.0703 54.3477Z" fill="#111111"/>
<path d="M61.9878 54.4484L42.183 40.3657L21.7226 55.5945L21.5713 55.3971L42.191 40.0496L62.1495 54.2416L61.9878 54.4484Z" fill="black"/>
<path d="M62.8131 29.2879L43.834 41.4336L43.699 41.2248L62.6781 29.0791L62.8131 29.2879Z" fill="black"/>
<path d="M40.6836 41.2716L40.5371 41.4883L22.2512 30.4407L22.3977 30.224L40.6836 41.2716Z" fill="black"/>
<path d="M45.9272 54.0219L34.6619 58.3242L36.572 66.8378C36.572 66.8378 44.5674 63.5861 45.5968 62.3678C46.6261 61.1495 48.4792 58.5932 49.7378 57.5287C50.9966 56.4642 51.1968 54.4418 51.8798 52.6243C52.5627 50.8068 54.8172 50.2376 53.9085 49.1252C52.9998 48.0128 49.7799 48.1723 48.376 50.2652C46.9721 52.358 45.9272 54.0219 45.9272 54.0219Z" fill="#F49C7A"/>
<path d="M36.1181 67.014C36.1184 67.0148 36.1187 67.0156 36.119 67.0163C36.1357 67.0588 36.1855 67.0782 36.2303 67.0597C36.2642 67.0457 39.6542 65.6403 42.6436 64.2398C45.2786 63.0053 45.7399 62.3979 46.5042 61.3917C46.622 61.2366 46.7438 61.0763 46.8828 60.9015C47.4138 60.2345 48.0716 59.5309 48.7078 58.8505C49.2992 58.2179 49.8579 57.6204 50.2341 57.1343C51.007 56.1356 51.759 53.1219 51.7906 52.9941C51.8019 52.9485 51.7734 52.9047 51.7269 52.8962C51.6805 52.8878 51.6337 52.918 51.6224 52.9635C51.6147 52.9945 50.8477 56.0693 50.0977 57.0383C49.7267 57.5177 49.1709 58.1121 48.5824 58.7416C47.9438 59.4246 47.2834 60.1309 46.748 60.8036C46.6076 60.98 46.4852 61.1412 46.3667 61.2971C45.6197 62.2807 45.1687 62.8744 42.5754 64.0893C39.5899 65.488 36.2038 66.8918 36.1699 66.9058C36.1259 66.924 36.1031 66.9721 36.1181 67.014Z" fill="#010103"/>
<path d="M45.8524 54.0506C45.8585 54.0677 45.8705 54.0827 45.8878 54.0924C45.9281 54.1152 45.9816 54.1008 46.0073 54.0605L47.0014 52.4989C48.681 49.3639 50.3146 48.8466 50.3309 48.8417C51.6964 48.4042 52.6061 48.5397 53.1292 48.7301C53.6938 48.9358 53.942 49.2482 53.9444 49.2513C53.9725 49.2872 54.0265 49.2928 54.0652 49.2637C54.104 49.2346 54.1128 49.182 54.085 49.1458C54.0742 49.1318 53.8132 48.7997 53.2097 48.5768C52.6598 48.3737 51.7064 48.2271 50.287 48.6819C50.2199 48.7015 48.571 49.215 46.8504 52.425L45.8614 53.978C45.8467 54.0012 45.8443 54.0278 45.8524 54.0506Z" fill="#010103"/>
<path d="M53.2924 49.2207C53.5951 49.4329 53.8536 49.6601 54.0724 49.8828C53.8247 50.5193 52.6915 51.1125 52.0819 52.1951C52.0818 52.195 52.0815 52.1947 52.0815 52.1947C52.0815 52.1947 51.6304 51.81 51.4526 51.3114C51.2748 50.8129 51.4133 50.5683 51.4133 50.5683L52.5114 49.3603C52.7245 49.1259 53.0679 49.0634 53.2924 49.2207Z" fill="#FBD2C1"/>
<path d="M53.1622 49.3516C53.0118 49.2462 52.7103 49.2213 52.539 49.3302L52.5799 49.2852C52.759 49.0882 53.1353 49.073 53.324 49.2052C53.6253 49.4165 53.8749 49.6455 54.0781 49.865C54.0528 49.9345 54.017 50.0035 53.9721 50.0727C53.7594 49.8349 53.4918 49.5826 53.1622 49.3516Z" fill="#FCB6A9"/>
<path d="M34.8345 64.7303C34.8432 64.7548 34.8649 64.7735 34.8934 64.7778C35.8504 64.9222 37.2973 64.2836 37.3584 64.2564C37.399 64.2382 37.4184 64.1925 37.4022 64.1539C37.3858 64.1155 37.3395 64.099 37.2988 64.1171C37.2843 64.1236 35.8357 64.7628 34.9262 64.6256C34.8833 64.6191 34.8412 64.648 34.8322 64.69C34.829 64.7041 34.8301 64.7179 34.8345 64.7303Z" fill="#010103"/>
<path d="M34.0508 64.0281C34.0576 64.0472 34.0724 64.0631 34.0932 64.0712C34.9842 64.4145 36.5219 64.0865 36.5869 64.0724C36.6301 64.063 36.6592 64.0218 36.6519 63.9803C36.6447 63.9387 36.6036 63.9128 36.5604 63.9222C36.545 63.9256 35.0054 64.2538 34.1588 63.9276C34.1188 63.9122 34.0718 63.9319 34.0537 63.9715C34.045 63.9905 34.0446 64.0106 34.0508 64.0281Z" fill="#010103"/>
<path d="M48.64 55.1299C48.6453 55.1448 48.6551 55.1581 48.6692 55.1678C49.3417 55.633 49.8877 56.4342 49.8931 56.4422C49.9187 56.48 49.9721 56.4888 50.0125 56.4619C50.053 56.435 50.065 56.3824 50.0395 56.3448C50.0166 56.311 49.4714 55.5112 48.7748 55.0293C48.7369 55.003 48.6825 55.0128 48.6534 55.0511C48.635 55.0752 48.631 55.1047 48.64 55.1299Z" fill="#010103"/>
<path d="M48.2494 55.8077C48.2547 55.8225 48.2644 55.8358 48.2785 55.8455C48.9511 56.3108 49.4971 57.112 49.5025 57.12C49.528 57.1578 49.5815 57.1666 49.6219 57.1396C49.6623 57.1128 49.6741 57.0603 49.6489 57.0225C49.626 56.9887 49.0808 56.1889 48.3841 55.707C48.3462 55.6808 48.2919 55.6906 48.2627 55.7288C48.2444 55.7529 48.2404 55.7825 48.2494 55.8077Z" fill="#010103"/>
<path d="M-10.9993 33.3608L-2.47526 47.8052C-1.73127 47.8365 -0.815688 47.9996 -0.238953 48.4356C0.50817 49.0003 1.85667 49.7183 2.8569 50.1678C5.16252 51.2042 7.85005 52.0602 9.95903 52.7854C13.1252 53.8743 12.6861 54.0139 15.1734 54.9425C16.4928 55.4353 19.1482 56.829 20.3209 57.4891C20.3362 57.4978 20.3367 57.4974 20.3405 57.4998C20.3589 57.5099 20.3543 57.5076 20.3551 57.5078C20.3767 57.5192 20.4026 57.5238 20.4267 57.5161C20.9586 57.3529 21.411 56.0082 21.411 56.0082C21.9906 53.4346 16.5892 50.3765 16.5892 50.3765C16.5892 50.3765 11.942 48.2583 12.7879 46.6313C12.7879 46.6313 12.7879 46.6313 12.7882 46.6311C13.5359 45.1659 19.5874 44.2382 21.2156 44.0381C21.2156 44.0381 37.8453 42.3665 38.3431 42.374C39.7716 42.3955 41.2899 41.5648 41.2666 40.2172C41.2549 39.5431 40.786 39.1092 40.3202 38.8437C39.8998 38.6041 39.4148 38.4819 38.9164 38.4692L25.2243 38.1259C25.2238 38.1016 25.2227 38.0772 25.2213 38.0531C25.1048 36.0674 22.1688 34.1149 22.1688 34.1149C22.166 34.1102 22.171 34.116 22.1539 34.0411C21.8585 32.7229 19.8944 31.0265 19.8944 31.0265C19.8944 31.0265 19.8925 31.0008 19.8809 30.9534C19.8221 30.709 19.5114 29.8838 17.9254 28.947C16.0291 27.8266 -0.00242966 32.6571 -2.09471 32.9967C-3.06305 33.1542 -7.024 33.276 -10.9993 33.3608Z" fill="#F49C7A"/>
<path d="M18.4284 55.3587C18.0403 55.5018 17.6495 55.8037 17.4499 55.9743C17.4499 55.9743 20.299 57.4732 20.3524 57.5041C20.4707 57.3793 20.554 57.2351 20.6689 57.0946C20.8669 56.852 20.8329 56.505 20.5984 56.2865C20.5873 56.2757 20.5758 56.2653 20.5634 56.2556L19.3262 55.2665C19.3262 55.2665 19.0428 55.1324 18.4284 55.3587Z" fill="#FBD2C1"/>
<path d="M20.6039 56.2816C20.6045 56.2824 20.6051 56.2831 20.6052 56.284C20.7208 56.4632 20.6661 56.7902 20.5278 56.9598C20.4024 57.1127 20.2679 57.2611 20.1387 57.3928C20.1387 57.3928 20.3442 57.5017 20.3534 57.5068C20.4674 57.3883 20.5804 57.2615 20.6909 57.1259C20.8655 56.912 20.8773 56.5044 20.6548 56.3233L20.6039 56.2816Z" fill="#FDC9BC"/>
<g opacity="0.5">
<path d="M39.9946 39.0256C39.9946 39.0256 37.7276 38.887 37.3555 39.0983C36.9834 39.3095 37.0175 41.544 37.2979 41.8085C37.5784 42.0729 40.1164 41.6354 40.3026 41.57C40.4887 41.5046 41.4018 39.8189 39.9946 39.0256Z" fill="white"/>
<path d="M39.9947 39.0257C39.9947 39.0257 39.9523 39.0231 39.8801 39.0193C40.9742 39.9119 40.2189 41.4894 40.0046 41.6344C40.1608 41.6052 40.2694 41.5817 40.3026 41.57C40.4888 41.5047 41.4018 39.819 39.9947 39.0257Z" fill="#FDC9BC"/>
</g>
<path d="M11.8582 47.4683C11.87 47.4402 12.1634 46.7701 13.7003 45.7816C15.5683 44.5803 22.0256 43.8826 22.2995 43.8535C22.4542 43.8384 37.7232 42.3448 39.0824 42.234C40.3545 42.1303 40.9594 41.083 41.0006 41.0088C41.2333 40.3703 41.2158 39.8387 40.9486 39.4286C40.4458 38.6567 39.2145 38.5604 39.2021 38.5594L25.2177 38.1954L22.3416 38.1147L22.3542 37.9695L25.2302 38.0502L39.2178 38.4145C39.2745 38.4184 40.5352 38.5163 41.0761 39.3456C41.3693 39.795 41.3906 40.3704 41.1396 41.0558L41.1354 41.0651C41.1291 41.0771 40.4885 42.2644 39.0866 42.3787C37.7288 42.4894 22.461 43.9829 22.307 43.9979C22.2409 44.005 15.6141 44.7206 13.7781 45.9014C12.2919 46.8572 11.9992 47.5103 11.9964 47.5167L11.8582 47.4683Z" fill="#1D1D1B"/>
<path d="M18.8654 34.053L18.8798 33.9079L22.1957 34.0402L22.2124 34.0512C25.0655 35.9397 25.2897 38.025 25.298 38.1127L25.1488 38.1337C25.1469 38.1129 24.9185 36.0309 22.1401 34.1837L18.8654 34.053Z" fill="#1D1D1B"/>
<path d="M16.8553 31.0149L16.8677 30.8697L19.9224 30.9529L19.94 30.9652C21.5516 32.0961 22.2328 34.0672 22.2395 34.087L22.0969 34.1391C22.0904 34.1198 21.4269 32.2038 19.8654 31.0969L16.8553 31.0149Z" fill="#1D1D1B"/>
<path d="M4.49018 31.3891L4.45742 31.2494C4.93156 31.1211 16.0877 28.1173 17.7725 28.8026C19.4636 29.4904 19.9603 30.9867 19.9651 31.0018L19.8219 31.0519C19.8173 31.0373 19.3377 29.5998 17.7082 28.937C16.0696 28.2705 4.60575 31.3578 4.49018 31.3891Z" fill="#1D1D1B"/>
<path d="M-2.54516 47.6839L-2.46055 47.8272C-1.80059 47.8568 -0.995303 47.9879 -0.40985 48.3933C-0.158384 48.5676 0.131864 48.7523 0.449761 48.942C0.449761 48.942 0.450331 48.9421 0.450534 48.9425C1.12087 49.3428 1.91411 49.7656 2.72752 50.1598C3.74898 50.6547 4.80172 51.1047 5.68198 51.408L5.71054 51.3392L5.73894 51.271C3.80845 50.6057 1.09494 49.2051 -0.312708 48.2776C-0.976404 47.84 -1.85738 47.7096 -2.54516 47.6839Z" fill="#1D1D1B"/>
</g>
<defs>
<clipPath id="clip0_740_7967">
<rect width="75" height="71" fill="white"/>
</clipPath>
</defs>
</svg>
